<?xml version="1.0" encoding="iso-8859-1"?>
<!-- Generator: Adobe Illustrator 16.0.0, SVG Export Plug-In . SVG Version: 6.00 Build 0)  -->
<!DOCTYPE svg PUBLIC "-//W3C//DTD SVG 1.1//EN" "http://www.w3.org/Graphics/SVG/1.1/DTD/svg11.dtd">
<svg version="1.1" id="Capa_1" xmlns="http://www.w3.org/2000/svg" xmlns:xlink="http://www.w3.org/1999/xlink" x="0px" y="0px"
	 width="434.464px" height="434.463px" viewBox="0 0 434.464 434.463" style="enable-background:new 0 0 434.464 434.463;"
	 xml:space="preserve">
<g>
	<path d="M432.396,152.531c-6.072-11.085-24.622-17.244-40.053-20.542c-9.056-20.903-30.36-35.618-55.142-35.618
		c-1.535,0-3.104,0.061-4.657,0.179l-0.533,0.041l-0.439-0.306c-10.225-7.124-22.272-10.89-34.846-10.89
		c-6.935,0-13.726,1.146-20.187,3.405l-0.495,0.173L275.55,88.8c-6.463-2.26-13.254-3.405-20.188-3.405
		c-11.145,0-21.993,2.985-31.375,8.634l-0.562,0.338l-0.631-0.184c-4.512-1.314-9.23-2.102-14.025-2.341l-3.336-0.167l2.34-2.383
		c1.104-1.123,2.109-2.177,2.98-3.114c4.32-4.651,8.129-9.391,10.725-13.345c3.351-5.1,6.813-11.849,3.854-18.825
		c-4.933-11.646-27.16-14.753-39.516-14.753c-2.43,0-4.801,0.109-7.047,0.326c-8.566,0.824-16.063,3.155-22.277,6.928l-0.693,0.421
		l-0.732-0.351c-10.738-5.141-22.818-7.747-35.902-7.747c-3.137,0-6.348,0.156-9.545,0.464C92.4,40.953,77.551,45.964,65.486,54.191
		l-0.596,0.407l-0.689-0.212c-6.189-1.903-13.291-2.5-20.953-1.763C29.697,53.927,3.189,62.022,0.299,75.66
		C-1.447,83.896,4.93,90.545,7.33,93.048c3.113,3.248,7.525,7.04,12.424,10.68c4.727,3.513,17.143,12.202,30.34,17.014l0.662,0.241
		l0.236,0.663c3.627,10.135,7.617,19.643,11.863,28.26c7.453,15.126,15.52,27.135,23.977,35.692
		c2.818,2.851,5.762,5.387,8.748,7.537l0.586,0.422l0.035,0.722c0.826,16.752,9.063,32.307,22.592,42.678l0.539,0.412l0.045,0.676
		c1.211,17.697,11.023,34.254,26.246,44.292l0.674,0.444v71.281c0,6.893,5.607,12.5,12.5,12.5s12.5-5.607,12.5-12.5v-54.457
		l2.426,1.896c5.834,4.566,12.398,7.973,19.508,10.12l1.066,0.321v71.188c0,6.893,5.607,12.5,12.5,12.5s12.5-5.607,12.5-12.5
		v-69.395l1.271-0.195c3.285-0.506,6.531-1.281,9.65-2.305l0.621-0.205l0.572,0.316c8.93,4.932,19.118,7.539,29.465,7.539
		c8.295,0,16.688-1.729,24.271-5.001l0.594-0.256l0.594,0.256c7.584,3.271,15.978,5.001,24.271,5.001
		c2.092,0,4.291-0.119,6.537-0.354l1.653-0.172v35.701c0,6.893,5.607,12.5,12.5,12.5c6.894,0,12.5-5.607,12.5-12.5v-44.925
		l0.664-0.444c2.154-1.447,4.205-3.021,6.099-4.679l0.373-0.327l0.494-0.039c3.696-0.299,7.391-0.941,10.979-1.91l1.891-0.512
		v81.902c0,6.895,5.607,12.5,12.5,12.5c6.894,0,12.5-5.605,12.5-12.5v-96.934l0.431-0.438c10.651-10.868,16.52-25.061,16.52-39.962
		c0-8.099-1.703-15.964-5.062-23.377l-0.279-0.619l0.279-0.619c3.358-7.413,5.062-15.278,5.062-23.377
		c0-11.426-3.438-22.513-9.947-32.061l-0.348-0.509l0.111-0.606c0.038-0.206,0.063-0.415,0.1-0.621
		c10.146,7.915,22.31,16.496,30.027,12.557c2.539-1.297,4.655-3.811,6.287-7.473C435.153,163.087,435.126,157.516,432.396,152.531z
		 M101.148,171.45c-6.934-7.018-13.742-17.259-20.236-30.438c-5.834-11.845-10.154-23.555-12.75-31.292l-1.656-4.937l-6.82-2.051
		C47.952,99.205,35.344,90.237,31.76,87.573c-2.963-2.202-5.693-4.448-7.898-6.496l-1.604-1.487l1.965-0.959
		c4.871-2.38,12.936-5.198,20.953-5.97c6.496-0.623,11.992,0.112,16.115,2.154l6.541,3.24l5.041-4.241
		c6.59-5.542,18.65-12.553,38.674-14.479c15.125-1.456,29.041,1.399,39.838,8.151l6.699,4.189l5.658-5.512
		c3.662-3.566,9.525-5.829,16.955-6.543c1.609-0.154,3.332-0.233,5.119-0.233c5.619,0,11.67,0.768,16.6,2.106l2.105,0.571
		l-1.287,1.761c-1.918,2.628-4.486,5.703-7.23,8.657c-3.197,3.442-14.473,15.072-25.338,20.19l-5.475,2.579l-0.709,5.461
		c-1.1,8.472-3.221,21.39-7.076,34.819c-3.904,13.593-8.66,24.479-14.139,32.358c-5.979,8.598-12.684,13.311-19.932,14.008
		c-0.611,0.059-1.23,0.089-1.844,0.089C114.904,181.986,108.058,178.441,101.148,171.45z M380.882,226.975
		c3.424,5.715,5.233,12.223,5.233,18.823c0,20.791-17.688,37.802-39.434,37.922l-4.197,0.022l-2.938,3
		c-7.591,7.75-17.869,12.018-28.943,12.018c-7.012,0-13.914-1.783-19.957-5.16l-4.91-2.74l-4.906,2.742
		c-6.041,3.375-12.94,5.157-19.954,5.157c-8.406,0-16.443-2.493-23.242-7.209l-4.648-3.226l-5.172,2.297
		c-5.25,2.33-10.854,3.513-16.662,3.513c-14.006,0-26.703-6.854-33.967-18.339l-2.291-3.621l-4.197-0.857
		c-18.148-3.713-31.32-19.309-31.32-37.082c0-0.588,0.021-1.174,0.047-1.756l0.27-5.945l-5.08-3.1
		c-7.561-4.617-13.125-11.305-16.092-19.342l-0.777-2.103l2.518,0.095c1.654,0.066,3.338,0.012,5.002-0.149
		c13.404-1.289,25.021-8.877,34.531-22.553c6.738-9.693,12.445-22.577,16.959-38.293c1.91-6.658,3.604-13.801,5.029-21.23
		l0.129-0.68l3.529-2.001c6.104-3.461,13.086-5.291,20.195-5.291c5.363,0,10.564,1.006,15.46,2.992l5.271,2.138l4.549-3.413
		c7.043-5.284,15.496-8.076,24.444-8.076c5.783,0,11.373,1.174,16.615,3.491l4.068,1.798l4.065-1.798
		c5.24-2.316,10.83-3.49,16.613-3.49c9.543,0,18.771,3.299,25.983,9.291l3.503,2.908l4.495-0.708
		c2.168-0.341,4.354-0.515,6.494-0.515c21.869,0,39.662,17.014,39.662,37.928c0,3.464-0.5,6.921-1.481,10.275l-1.521,5.187
		l3.482,4.132c5.739,6.81,8.772,15.034,8.772,23.783c0,6.6-1.811,13.108-5.233,18.821l-3.103,5.174L380.882,226.975z"/>
</g>
<g>
</g>
<g>
</g>
<g>
</g>
<g>
</g>
<g>
</g>
<g>
</g>
<g>
</g>
<g>
</g>
<g>
</g>
<g>
</g>
<g>
</g>
<g>
</g>
<g>
</g>
<g>
</g>
<g>
</g>
</svg>
