<?xml version="1.0" encoding="iso-8859-1"?>
<!-- Generator: Adobe Illustrator 16.0.0, SVG Export Plug-In . SVG Version: 6.00 Build 0)  -->
<!DOCTYPE svg PUBLIC "-//W3C//DTD SVG 1.1//EN" "http://www.w3.org/Graphics/SVG/1.1/DTD/svg11.dtd">
<svg version="1.1" id="Capa_1" xmlns="http://www.w3.org/2000/svg" xmlns:xlink="http://www.w3.org/1999/xlink" x="0px" y="0px"
	 width="43.547px" height="43.547px" viewBox="0 0 43.547 43.547" style="enable-background:new 0 0 43.547 43.547;"
	 xml:space="preserve">
<g>
	<g>
		<path d="M38.416,8.805c1.789-1.788,2.63-3.924,2.09-5.092L43.34,0.88c0.186-0.186,0.186-0.486,0-0.672s-0.486-0.186-0.672,0
			l-2.833,2.833c-1.168-0.54-3.303,0.301-5.092,2.09c-2.019,2.018-2.831,4.476-1.815,5.49C33.941,11.635,36.398,10.822,38.416,8.805
			z"/>
		<path d="M43.072,15.511h-4.006c-0.444-1.207-2.549-2.13-5.08-2.13c-2.854,0-5.168,1.16-5.168,2.595s2.313,2.605,5.168,2.605
			c2.529,0,4.635-0.907,5.08-2.114h4.006c0.263,0,0.475-0.216,0.475-0.478C43.547,15.727,43.334,15.511,43.072,15.511z"/>
		<path d="M37.697,20.893h-4.006c-0.444-1.207-2.549-2.133-5.08-2.133c-2.854,0-5.168,1.157-5.168,2.592s2.313,2.583,5.168,2.583
			c2.529,0,4.635-0.881,5.08-2.138h4.006c0.263,0,0.475-0.19,0.475-0.453C38.172,21.083,37.96,20.893,37.697,20.893z"/>
		<path d="M32.322,26.225h-4.006c-0.443-1.207-2.549-2.111-5.08-2.111c-2.854,0-5.166,1.168-5.167,2.604
			c0,1.436,2.313,2.592,5.167,2.592c2.531,0,4.637-0.921,5.08-2.128h4.006c0.263,0,0.475-0.216,0.475-0.479
			S32.585,26.225,32.322,26.225z"/>
		<path d="M26.948,31.605h-4.006c-0.443-1.207-2.549-2.115-5.08-2.115c-2.853,0-5.166,1.168-5.166,2.603
			c0,1.437,2.313,2.595,5.166,2.595c2.53,0,4.636-0.918,5.08-2.125h4.006c0.262,0,0.475-0.216,0.475-0.479
			C27.423,31.82,27.21,31.605,26.948,31.605z"/>
		<path d="M27.575,14.728c1.435,0,2.597-2.313,2.597-5.166c0-2.531-0.917-4.637-2.124-5.08V0.476C28.048,0.213,27.833,0,27.57,0
			c-0.262,0-0.479,0.213-0.479,0.476v4.006c-1.207,0.444-2.119,2.55-2.119,5.08C24.975,12.415,26.141,14.728,27.575,14.728z"/>
		<path d="M22.201,20.103c1.436-0.001,2.594-2.313,2.594-5.167c0-2.53-0.92-4.636-2.127-5.08V5.85c0-0.262-0.215-0.475-0.478-0.475
			c-0.263,0-0.478,0.213-0.478,0.475v4.007c-1.208,0.444-2.116,2.55-2.116,5.079C19.596,17.789,20.766,20.103,22.201,20.103z"/>
		<path d="M16.826,25.477c1.435,0,2.59-2.312,2.59-5.166c0-2.53-0.923-4.636-2.13-5.08v-4.005c0-0.263-0.215-0.476-0.478-0.476
			c-0.263,0-0.478,0.213-0.478,0.476v4.005c-1.207,0.444-2.113,2.55-2.112,5.08C14.218,23.164,15.391,25.477,16.826,25.477z"/>
		<path d="M11.904,20.606V16.6c0-0.263-0.19-0.475-0.453-0.475c-0.263,0-0.453,0.212-0.453,0.475v4.006
			c-1.207,0.444-2.134,2.55-2.134,5.08c0,2.854,1.157,5.166,2.592,5.166c1.434,0,2.584-2.312,2.584-5.166
			C14.041,23.154,13.111,21.049,11.904,20.606z"/>
		<path d="M9.152,32.38l-8.734,8.733c-0.557,0.557-0.557,1.459,0,2.017c0.278,0.276,0.643,0.417,1.008,0.417
			c0.364,0,0.729-0.141,1.007-0.417l8.734-8.733c0.557-0.558,0.557-1.459,0-2.017S9.708,31.822,9.152,32.38z"/>
	</g>
</g>
<g>
</g>
<g>
</g>
<g>
</g>
<g>
</g>
<g>
</g>
<g>
</g>
<g>
</g>
<g>
</g>
<g>
</g>
<g>
</g>
<g>
</g>
<g>
</g>
<g>
</g>
<g>
</g>
<g>
</g>
</svg>
