<?xml version="1.0" encoding="iso-8859-1"?>
<!-- Generator: Adobe Illustrator 19.0.0, SVG Export Plug-In . SVG Version: 6.00 Build 0)  -->
<svg version="1.1" id="Layer_1" xmlns="http://www.w3.org/2000/svg" xmlns:xlink="http://www.w3.org/1999/xlink" x="0px" y="0px"
	 viewBox="0 0 512.001 512.001" style="enable-background:new 0 0 512.001 512.001;" xml:space="preserve">
<g>
	<g>
		<path d="M361.075,222.041v-12.129c0-9.891-8.019-17.91-17.91-17.91h-11.543c17.807-12.83,29.452-33.839,29.452-57.556V61.853
			c0-9.891-8.019-17.91-17.91-17.91c-9.891,0-17.91,8.019-17.91,17.91v42.985h-26.734c2.045-7.969,3.125-16.226,3.125-24.617
			c0-23.481-8.394-46.248-23.636-64.111l-8.383-9.824C266.221,2.297,261.242,0,256.001,0c-5.242,0-10.222,2.297-13.625,6.284
			l-8.383,9.826c-15.242,17.861-23.635,40.63-23.635,64.111c0,8.392,1.079,16.648,3.125,24.617h-26.735V61.853
			c0-9.891-8.019-17.91-17.91-17.91s-17.91,8.019-17.91,17.91v72.593c0,23.716,11.644,44.726,29.453,57.556h-11.543
			c-9.891,0-17.91,8.019-17.91,17.91v12.129c0,24.263,12.326,45.691,31.026,58.319h-13.115c-9.891,0-17.91,8.019-17.91,17.91v11.366
			c0,23.135,10.971,43.718,27.91,56.694h-10c-9.891,0-17.91,8.019-17.91,17.91v12.001c0,38.812,31.421,70.387,70.044,70.387h17.12
			v27.463c0,9.891,8.019,17.91,17.91,17.91c9.891,0,17.91-8.019,17.91-17.91v-27.463h17.121c38.622,0,70.043-31.575,70.043-70.387
			V384.24c0-9.891-8.019-17.91-17.91-17.91h-10c16.94-12.975,27.91-33.558,27.91-56.694V298.27c0-9.891-8.019-17.91-17.91-17.91
			h-13.115C348.748,267.731,361.075,246.304,361.075,222.041z M216.57,140.659c7.069,0,13.895,2.185,19.617,6.137
			c0.178,0.195,0.343,0.398,0.522,0.59l1.379,1.488v20.442h-17.12c-16.789,0-30.782-12.386-33.668-28.657H216.57z M238.089,430.807
			h-17.12c-16.878,0-30.94-12.401-33.723-28.657h29.325c7.87,0,15.44,2.705,21.518,7.549V430.807z M238.089,344.837h-17.12
			c-16.697,0-30.64-12.363-33.63-28.657h29.232c7.87,0,15.44,2.704,21.518,7.549V344.837z M238.089,256.479h-17.12
			c-16.912,0-30.999-12.411-33.741-28.657h29.343c7.87,0,15.44,2.704,21.518,7.549V256.479z M255.999,114.001
			c-6.389-10.026-9.822-21.693-9.822-33.779c0-12.006,3.444-23.721,9.822-33.762c6.378,10.042,9.822,21.756,9.822,33.762
			C265.822,92.307,262.387,103.973,255.999,114.001z M273.91,148.875l1.38-1.489c0.179-0.193,0.345-0.395,0.522-0.59
			c5.722-3.953,12.548-6.137,19.617-6.137h29.269c-2.886,16.271-16.879,28.657-33.667,28.657H273.91V148.875z M273.91,323.731
			c6.078-4.844,13.65-7.55,21.519-7.55h29.231c-2.99,16.294-16.932,28.657-33.629,28.657H273.91V323.731z M291.031,430.807H273.91
			v-21.107c6.078-4.844,13.65-7.55,21.519-7.55h29.324C321.969,418.406,307.907,430.807,291.031,430.807z M291.031,256.479H273.91
			v-21.107c6.078-4.844,13.65-7.55,21.519-7.55h29.342C322.029,244.069,307.943,256.479,291.031,256.479z"/>
	</g>
</g>
<g>
</g>
<g>
</g>
<g>
</g>
<g>
</g>
<g>
</g>
<g>
</g>
<g>
</g>
<g>
</g>
<g>
</g>
<g>
</g>
<g>
</g>
<g>
</g>
<g>
</g>
<g>
</g>
<g>
</g>
</svg>
