<?xml version="1.0" encoding="iso-8859-1"?>
<!-- Generator: Adobe Illustrator 19.0.0, SVG Export Plug-In . SVG Version: 6.00 Build 0)  -->
<svg version="1.1" id="Layer_1" xmlns="http://www.w3.org/2000/svg" xmlns:xlink="http://www.w3.org/1999/xlink" x="0px" y="0px"
	 viewBox="0 0 512.002 512.002" style="enable-background:new 0 0 512.002 512.002;" xml:space="preserve">
<g>
	<g>
		<path d="M340.271,161.92v-0.001c-3.468,0-6.849,0.071-10.151,0.193l21.126-63.367h-10.975c-14.336,0-27.205,1.055-38.421,3.139
			l4.526-45.268L256.046,0l-50.328,56.617l4.526,45.268c-11.218-2.084-24.087-3.139-38.421-3.139h-11.066l21.688,63.387
			c-3.459-0.135-6.999-0.212-10.621-0.212H160.85l21.115,63.367c-3.3-0.123-6.679-0.193-10.143-0.193H160.85l21.111,63.356
			c-3.299-0.122-6.676-0.193-10.138-0.193H160.85l21.115,63.368c-3.3-0.123-6.679-0.193-10.143-0.193h-10.974l31.586,94.781h55.701
			v65.789h15.82v-65.789h55.692l31.598-94.781h-10.975c-3.467,0-6.848,0.071-10.151,0.193l21.126-63.368h-10.975
			c-3.466,0-6.846,0.071-10.147,0.193l21.121-63.356h-10.975c-3.467,0-6.848,0.071-10.151,0.193l21.126-63.367H340.271z
			 M329.218,114.799l-16.198,48.589c-24.348,2.849-39.561,9.558-49.063,16.872v-36.603c0.092-1.19,1.823-15.893,31.09-24.002
			C304.606,116.998,316.066,115.37,329.218,114.799z M263.956,206.799v-0.12C263.956,206.679,263.958,206.72,263.956,206.799z
			 M263.956,143.624v-0.12C263.956,143.504,263.958,143.545,263.956,143.624z M217.053,119.656
			c29.354,8.133,31.001,22.894,31.084,24.002v36.594c-9.432-7.259-24.493-13.921-48.523-16.803l-16.643-48.648
			C196.083,115.378,207.511,117.004,217.053,119.656z M192.929,178.645c52.189,4.799,55.097,27.065,55.207,28.196v36.589
			c-9.503-7.314-24.719-14.024-49.073-16.869l-16.19-48.587C186.342,178.126,189.702,178.349,192.929,178.645z M192.109,241.746
			c52.979,4.639,55.918,27.134,56.027,28.269v36.577c-9.505-7.315-24.721-14.025-49.076-16.869l-16.187-48.577
			C186.059,241.285,189.144,241.485,192.109,241.746z M248.136,430.39h-44.298l-20.964-62.908c3.186,0.139,6.271,0.34,9.236,0.6
			c52.979,4.638,55.918,27.133,56.027,28.268V430.39z M248.137,369.766c-9.505-7.314-24.72-14.024-49.073-16.869l-16.19-48.588
			c3.186,0.139,6.271,0.34,9.236,0.601c52.979,4.638,55.918,27.133,56.027,28.268V369.766z M256.069,124.644
			c-6.525-8.022-16.425-14.265-29.513-18.617l-4.406-44.082l33.896-38.134l33.898,38.133l-4.406,44.078
			C270.443,111.057,261.438,118.053,256.069,124.644z M263.956,369.772V333.18c0.112-1.154,3.073-23.625,56.022-28.27
			c2.965-0.262,6.051-0.462,9.24-0.601l-16.198,48.59C288.672,355.747,273.458,362.457,263.956,369.772z M263.956,396.309v-0.12
			C263.956,396.189,263.958,396.23,263.956,396.309z M263.956,333.136v-0.12C263.956,333.015,263.958,333.056,263.956,333.136z
			 M313.022,289.723c-24.35,2.85-39.563,9.559-49.067,16.873v-36.581c0.112-1.154,3.073-23.624,56.021-28.27
			c2.966-0.262,6.052-0.462,9.241-0.601L313.022,289.723z M263.956,269.973v-0.12C263.956,269.852,263.958,269.893,263.956,269.973z
			 M308.246,430.39h-44.29v-34.047c0.05-0.615,0.642-5.805,6.751-11.642c6.463-6.176,20.257-14.073,49.27-16.618
			c2.966-0.262,6.052-0.462,9.242-0.601L308.246,430.39z M313.019,226.56c-24.348,2.851-39.561,9.56-49.063,16.873v-36.591
			c0.112-1.154,3.073-23.625,56.022-28.27c2.964-0.262,6.049-0.462,9.241-0.601L313.019,226.56z"/>
	</g>
</g>
<g>
</g>
<g>
</g>
<g>
</g>
<g>
</g>
<g>
</g>
<g>
</g>
<g>
</g>
<g>
</g>
<g>
</g>
<g>
</g>
<g>
</g>
<g>
</g>
<g>
</g>
<g>
</g>
<g>
</g>
</svg>
