<?xml version="1.0" encoding="iso-8859-1"?>
<!-- Generator: Adobe Illustrator 19.0.0, SVG Export Plug-In . SVG Version: 6.00 Build 0)  -->
<svg version="1.1" id="Layer_1" xmlns="http://www.w3.org/2000/svg" xmlns:xlink="http://www.w3.org/1999/xlink" x="0px" y="0px"
	 viewBox="0 0 512 512" style="enable-background:new 0 0 512 512;" xml:space="preserve">
<g>
	<g>
		<path d="M512,168.099l-17.127-12.372c-13.628-9.844-26.523-17.86-38.669-24.062c19.168-18.004,32.298-50.622,39.137-97.389
			l3.057-20.906l-20.906,3.056c-46.644,6.821-79.21,19.902-97.245,38.988c-6.158-11.968-14.065-24.657-23.743-38.056L344.132,0.231
			l-12.868,16.758c-18.414,23.979-30.879,45.772-37.36,65.248c-1.491-1.815-3.007-3.639-4.576-5.478l-13.71-16.077L264.14,78.421
			c-15.05,23.258-25.255,44.277-30.626,62.968c-1.313-1.591-2.648-3.187-4.019-4.797l-13.71-16.077l-11.479,17.739
			c-15.049,23.258-25.255,44.277-30.626,62.968c-1.313-1.591-2.647-3.188-4.019-4.796l-13.71-16.077l-11.478,17.739
			c-15.049,23.257-25.255,44.277-30.626,62.968c-1.313-1.591-2.647-3.187-4.019-4.796l-13.71-16.077l-11.478,17.739
			c-33.029,51.04-42.81,91.343-29.073,119.785c7.01,14.516,18.589,22.782,28.769,27.468L0,489.512l22.257,22.257l84.503-84.503
			c4.632,10.328,12.948,22.247,27.763,29.402c8.321,4.018,17.656,6.024,27.979,6.024c24.963,0,55.698-11.731,91.808-35.098
			l17.74-11.478l-16.078-13.71c-1.606-1.37-3.202-2.704-4.791-4.014c18.689-5.372,39.71-15.586,62.963-30.632l17.738-11.478
			l-16.077-13.709c-1.606-1.37-3.202-2.704-4.79-4.014c18.689-5.372,39.71-15.586,62.962-30.631l17.738-11.478l-16.076-13.71
			c-1.606-1.37-3.202-2.704-4.791-4.014c18.689-5.372,39.71-15.586,62.962-30.632l17.74-11.478l-16.078-13.71
			c-1.84-1.569-3.664-3.086-5.48-4.577c19.476-6.481,41.27-18.944,65.249-37.359L512,168.099z M397.303,85.587
			c3.893-8.937,17.326-24.227,62.999-34.122c-9.894,45.674-25.185,59.107-34.121,62.999c-10.643,4.632-21.643,0.015-26.367-2.51
			C397.289,107.23,392.67,96.228,397.303,85.587z M343.342,54.102c24.72,39.658,23.109,59.949,19.41,68.966
			c-4.406,10.737-15.517,15.087-20.665,16.569c-4.564-1.459-13.813-5.368-18.644-13.945c-0.234-0.45-0.484-0.904-0.723-1.357
			c-0.29-0.601-0.559-1.221-0.803-1.865C318.484,113.347,317.469,93.019,343.342,54.102z M279.164,114.44
			c6.28,8.471,11.134,16.06,14.868,22.851c0.818,1.775,1.707,3.464,2.658,5.065c10.076,20.27,9.493,32.61,7.371,39.265
			c-3.54,11.094-14.324,16.322-19.315,18.197c-5.104-1.16-16.28-4.831-21.336-15.3C259.16,175.718,256.382,155.529,279.164,114.44z
			 M219.331,174.275c27.831,37.541,27.859,57.897,24.897,67.182c-3.54,11.093-14.323,16.322-19.315,18.197
			c-5.104-1.16-16.28-4.831-21.336-15.3C199.326,235.552,196.547,215.363,219.331,174.275z M159.496,234.109
			c27.831,37.541,27.859,57.896,24.897,67.181c-3.527,11.057-14.252,16.288-19.264,18.178c-5.218-1.216-16.536-4.992-21.486-15.489
			C139.486,295.162,136.839,274.981,159.496,234.109z M124.558,361.123c-3.539,11.094-14.324,16.323-19.315,18.197
			c-5.104-1.16-16.28-4.829-21.335-15.299c-4.25-8.801-7.029-28.99,15.754-70.079C127.494,331.484,127.522,351.838,124.558,361.123z
			 M148.419,428.423c-10.498-4.95-14.273-16.268-15.49-21.486c1.891-5.012,7.121-15.737,18.178-19.264
			c9.289-2.964,29.64-2.935,67.181,24.896C177.417,435.227,157.234,432.58,148.419,428.423z M208.253,368.588
			c-10.498-4.949-14.273-16.268-15.49-21.485c1.891-5.012,7.121-15.737,18.178-19.264c9.286-2.964,29.64-2.935,67.18,24.895
			C237.251,375.391,217.07,372.747,208.253,368.588z M268.088,308.755c-10.498-4.95-14.274-16.268-15.49-21.486
			c1.891-5.013,7.121-15.737,18.178-19.264c9.286-2.963,29.639-2.936,67.18,24.896C297.08,315.56,276.901,312.911,268.088,308.755z
			 M327.92,248.921c-10.532-4.966-14.298-16.343-15.501-21.537c1.821-4.908,6.927-15.505,17.971-19.141
			c6.661-2.195,19.034-2.863,39.433,7.268c1.647,0.981,3.384,1.897,5.216,2.737c6.767,3.728,14.325,8.569,22.755,14.82
			C356.919,255.726,336.738,253.077,327.92,248.921z M389.762,190.314c-0.645-0.242-1.265-0.514-1.868-0.803
			c-0.45-0.239-0.903-0.488-1.352-0.721c-8.611-4.848-12.517-14.15-13.964-18.697c1.42-5.039,5.657-16.013,16.372-20.525
			c9.006-3.794,29.312-5.536,69.18,19.321C419.216,194.761,398.888,193.748,389.762,190.314z"/>
	</g>
</g>
<g>
</g>
<g>
</g>
<g>
</g>
<g>
</g>
<g>
</g>
<g>
</g>
<g>
</g>
<g>
</g>
<g>
</g>
<g>
</g>
<g>
</g>
<g>
</g>
<g>
</g>
<g>
</g>
<g>
</g>
</svg>
