<?xml version="1.0" encoding="iso-8859-1"?>
<!-- Generator: Adobe Illustrator 17.1.0, SVG Export Plug-In . SVG Version: 6.00 Build 0)  -->
<!DOCTYPE svg PUBLIC "-//W3C//DTD SVG 1.1//EN" "http://www.w3.org/Graphics/SVG/1.1/DTD/svg11.dtd">
<svg version="1.1" id="Capa_1" xmlns="http://www.w3.org/2000/svg" xmlns:xlink="http://www.w3.org/1999/xlink" x="0px" y="0px"
	 viewBox="0 0 294 294" style="enable-background:new 0 0 294 294;" xml:space="preserve">
<g>
	<path d="M201,100c0-3.314-2.686-6-6-6h-95c-3.314,0-6,2.686-6,6v95c0,3.314,2.686,6,6,6h95c3.314,0,6-2.686,6-6V100z"/>
	<path d="M85.11,68.601C86.43,69.917,88.486,71,90.35,71h114.708c1.865,0,3.924-1.085,5.242-2.404L269.039,9.74
		c1.638-1.637,2.132-4.165,1.29-6.197C269.487,1.512,267.526,0,265.211,0H30.195c-2.315,0-4.276,1.454-5.118,3.485
		c-0.842,2.032-0.348,4.523,1.29,6.16L85.11,68.601z"/>
	<path d="M288.675,25.086c-1.453,0-2.866,0.6-3.954,1.689l-58.275,57.999C225.128,86.093,224,88.15,224,90.016v114.709
		c0,1.862,1.12,3.918,2.441,5.242l58.134,57.999c1.088,1.089,2.555,1.689,4.009,1.689c1.855,0,3.595-0.954,4.558-2.55
		c0.524-0.869,0.859-1.895,0.859-2.967V30.603C294,27.51,291.647,25.086,288.675,25.086z"/>
	<path d="M210.3,226.273c-1.319-1.318-3.377-2.273-5.242-2.273H90.35c-1.863,0-3.919,0.953-5.243,2.274l-57.999,58.05
		c-1.638,1.637-2.132,4.133-1.29,6.165c0.842,2.031,2.803,3.51,5.118,3.51h233.535c2.315,0,4.276-1.454,5.118-3.485
		c0.842-2.032,0.348-4.458-1.29-6.095L210.3,226.273z"/>
	<path d="M71,204.725V90.016c0-1.869-0.919-3.928-2.238-5.242L9.99,26.033c-1.088-1.088-2.862-1.688-4.315-1.688
		C2.702,24.346,0,26.769,0,29.862v235.016C0,267.971,2.852,270,5.824,270H5.92c1.453,0,2.901-0.402,3.989-1.491l58.83-58.641
		C70.058,208.549,71,206.59,71,204.725z"/>
</g>
<g>
</g>
<g>
</g>
<g>
</g>
<g>
</g>
<g>
</g>
<g>
</g>
<g>
</g>
<g>
</g>
<g>
</g>
<g>
</g>
<g>
</g>
<g>
</g>
<g>
</g>
<g>
</g>
<g>
</g>
</svg>
