<?xml version="1.0" encoding="iso-8859-1"?>
<!-- Generator: Adobe Illustrator 19.0.0, SVG Export Plug-In . SVG Version: 6.00 Build 0)  -->
<svg version="1.1" id="Layer_1" xmlns="http://www.w3.org/2000/svg" xmlns:xlink="http://www.w3.org/1999/xlink" x="0px" y="0px"
	 viewBox="0 0 512 512" style="enable-background:new 0 0 512 512;" xml:space="preserve">
<g>
	<g>
		<path d="M395.128,345.047H283.826c-9.22,0-16.695,7.475-16.695,16.695c0,9.22,7.475,16.695,16.695,16.695h111.302
			c9.22,0,16.695-7.475,16.695-16.695C411.823,352.522,404.348,345.047,395.128,345.047z"/>
	</g>
</g>
<g>
	<g>
		<path d="M395.128,411.829h-33.391c-9.22,0-16.695,7.475-16.695,16.695c0,9.22,7.475,16.695,16.695,16.695h33.391
			c9.22,0,16.695-7.475,16.695-16.695C411.823,419.304,404.348,411.829,395.128,411.829z"/>
	</g>
</g>
<g>
	<g>
		<path d="M455.263,294.962c33.965-20.466,56.732-57.709,56.732-100.172c0-64.44-52.427-116.867-116.867-116.867h-46.04
			l-63.24-63.238c-19.577-19.578-51.248-19.58-70.827,0c-17.578,17.577-18.986,44.256-6.246,63.238h-91.902
			c-64.44,0-116.867,52.427-116.867,116.867c0,42.463,22.767,79.706,56.732,100.172C22.773,315.429,0.006,352.67,0.006,395.133
			C0.006,459.574,52.432,512,116.873,512h278.255c64.44,0,116.867-52.427,116.867-116.867
			C511.995,352.67,489.228,315.428,455.263,294.962z M247.739,111.314v-0.001c14.823,0,22.309-17.996,11.805-28.5l-20.913-20.913
			c-6.528-6.529-6.529-17.076,0-23.606c6.509-6.508,17.097-6.508,23.606,0l68.129,68.129c3.131,3.131,7.377,4.891,11.805,4.891
			h52.955c46.029,0,83.476,37.448,83.476,83.476s-37.448,83.476-83.476,83.476H198.573c9.795-9.589,17.916-20.878,23.875-33.391
			h61.378c9.22,0,16.695-7.475,16.695-16.695c0-9.22-7.475-16.695-16.695-16.695h-51.284c0.784-5.455,1.198-11.027,1.198-16.695
			c0-32.672-13.482-62.248-35.167-83.476H247.739z M33.396,194.79c0-46.029,37.448-83.476,83.476-83.476
			c46.029,0,83.477,37.448,83.477,83.476s-37.448,83.476-83.476,83.476C70.844,278.266,33.396,240.819,33.396,194.79z
			 M116.873,478.61c-46.029,0-83.477-37.448-83.477-83.476c0-46.029,37.448-83.476,83.477-83.476
			c46.029,0,83.476,37.448,83.476,83.476C200.349,441.162,162.902,478.61,116.873,478.61z M395.128,478.61H198.573
			c9.795-9.589,17.916-20.878,23.875-33.391h72.508c9.22,0,16.695-7.475,16.695-16.695c0-9.22-7.475-16.695-16.695-16.695h-62.414
			c0.784-5.455,1.198-11.027,1.198-16.695c0-32.672-13.482-62.248-35.167-83.476h196.555c46.029,0,83.476,37.448,83.476,83.476
			C478.604,441.162,441.156,478.61,395.128,478.61z"/>
	</g>
</g>
<g>
	<g>
		<path d="M116.873,345.047c-27.617,0-50.086,22.469-50.086,50.086c0,27.617,22.469,50.086,50.086,50.086
			c27.617,0,50.086-22.469,50.086-50.086C166.959,367.516,144.49,345.047,116.873,345.047z M116.873,411.829
			c-9.206,0-16.695-7.49-16.695-16.695c0-9.206,7.49-16.695,16.695-16.695c9.206,0,16.695,7.49,16.695,16.695
			C133.568,404.339,126.078,411.829,116.873,411.829z"/>
	</g>
</g>
<g>
	<g>
		<path d="M395.128,144.704H283.826c-9.22,0-16.695,7.475-16.695,16.695c0,9.22,7.475,16.695,16.695,16.695h111.302
			c9.22,0,16.695-7.475,16.695-16.695C411.823,152.179,404.348,144.704,395.128,144.704z"/>
	</g>
</g>
<g>
	<g>
		<path d="M395.128,211.485h-33.391c-9.22,0-16.695,7.475-16.695,16.695c0,9.22,7.475,16.695,16.695,16.695h33.391
			c9.22,0,16.695-7.475,16.695-16.695C411.823,218.96,404.348,211.485,395.128,211.485z"/>
	</g>
</g>
<g>
	<g>
		<path d="M116.873,144.704c-27.617,0-50.086,22.469-50.086,50.086s22.469,50.086,50.086,50.086
			c27.617,0,50.086-22.469,50.086-50.086S144.49,144.704,116.873,144.704z M116.873,211.485c-9.206,0-16.695-7.49-16.695-16.695
			s7.49-16.695,16.695-16.695c9.206,0,16.695,7.49,16.695,16.695S126.078,211.485,116.873,211.485z"/>
	</g>
</g>
<g>
</g>
<g>
</g>
<g>
</g>
<g>
</g>
<g>
</g>
<g>
</g>
<g>
</g>
<g>
</g>
<g>
</g>
<g>
</g>
<g>
</g>
<g>
</g>
<g>
</g>
<g>
</g>
<g>
</g>
</svg>
