<?xml version="1.0" encoding="iso-8859-1"?>
<!-- Generator: Adobe Illustrator 19.0.0, SVG Export Plug-In . SVG Version: 6.00 Build 0)  -->
<svg version="1.1" id="Layer_1" xmlns="http://www.w3.org/2000/svg" xmlns:xlink="http://www.w3.org/1999/xlink" x="0px" y="0px"
	 viewBox="0 0 512 512" style="enable-background:new 0 0 512 512;" xml:space="preserve">
<g>
	<g>
		<path d="M455.016,294.944C489.08,274.499,512,237.307,512,194.77c0-64.441-52.429-116.87-116.87-116.87h-46.043l-63.239-63.239
			c-19.522-19.533-51.305-19.533-70.826,0c-17.585,17.585-18.982,44.256-6.25,63.239H116.87C52.424,77.901,0,130.325,0,194.77
			c0,42.539,22.918,79.73,56.981,100.174C22.918,315.387,0,352.578,0,395.118c0,64.445,52.424,116.87,116.87,116.87H395.13
			c64.441,0,116.87-52.429,116.87-116.87C512,352.581,489.08,315.39,455.016,294.944z M116.87,478.596
			c-46.08,0-83.478-37.398-83.478-83.478c0-46.08,37.398-83.478,83.478-83.478s83.478,37.398,83.478,83.478
			C200.348,441.198,162.95,478.596,116.87,478.596z M116.87,278.248c-46.08,0-83.478-37.398-83.478-83.478
			s37.398-83.478,83.478-83.478s83.478,37.398,83.478,83.478S162.95,278.248,116.87,278.248z M232.515,211.466h51.311
			c9.238,0,16.696,7.457,16.696,16.696s-7.457,16.696-16.696,16.696h-61.44C227.395,234.506,230.845,223.264,232.515,211.466z
			 M294.957,445.205h-72.57c5.009-10.351,8.459-21.593,10.129-33.391h62.442c9.238,0,16.696,7.457,16.696,16.696
			C311.652,437.748,304.195,445.205,294.957,445.205z M395.13,445.205h-33.391c-9.223,0-16.696-7.473-16.696-16.696
			c0-9.223,7.473-16.696,16.696-16.696h33.391c9.223,0,16.696,7.473,16.696,16.696C411.826,437.732,404.353,445.205,395.13,445.205z
			 M395.13,378.422H283.826c-9.223,0-16.696-7.473-16.696-16.696c0-9.223,7.473-16.696,16.696-16.696H395.13
			c9.223,0,16.696,7.473,16.696,16.696C411.826,370.949,404.353,378.422,395.13,378.422z M395.13,244.857h-33.391
			c-9.223,0-16.696-7.473-16.696-16.696s7.473-16.696,16.696-16.696h33.391c9.223,0,16.696,7.473,16.696,16.696
			S404.353,244.857,395.13,244.857z M395.13,178.075H283.826c-9.223,0-16.696-7.473-16.696-16.696
			c0-9.223,7.473-16.696,16.696-16.696H395.13c9.223,0,16.696,7.473,16.696,16.696C411.826,170.602,404.353,178.075,395.13,178.075z
			"/>
	</g>
</g>
<g>
	<g>
		<path d="M116.87,345.031c-27.619,0-50.087,22.468-50.087,50.087c0,27.619,22.468,50.087,50.087,50.087
			s50.087-22.468,50.087-50.087C166.957,367.499,144.489,345.031,116.87,345.031z"/>
	</g>
</g>
<g>
	<g>
		<path d="M116.87,144.683c-27.619,0-50.087,22.468-50.087,50.087c0,27.619,22.468,50.087,50.087,50.087
			c27.619,0,50.087-22.468,50.087-50.087C166.957,167.151,144.489,144.683,116.87,144.683z"/>
	</g>
</g>
<g>
</g>
<g>
</g>
<g>
</g>
<g>
</g>
<g>
</g>
<g>
</g>
<g>
</g>
<g>
</g>
<g>
</g>
<g>
</g>
<g>
</g>
<g>
</g>
<g>
</g>
<g>
</g>
<g>
</g>
</svg>
