<?xml version="1.0" encoding="iso-8859-1"?>
<!-- Generator: Adobe Illustrator 19.0.0, SVG Export Plug-In . SVG Version: 6.00 Build 0)  -->
<svg version="1.1" id="Layer_1" xmlns="http://www.w3.org/2000/svg" xmlns:xlink="http://www.w3.org/1999/xlink" x="0px" y="0px"
	 viewBox="0 0 511.753 511.753" style="enable-background:new 0 0 511.753 511.753;" xml:space="preserve">
<g>
	<g>
		<g>
			<path d="M55.425,210.15c-4.096-2.33-9.31-0.888-11.639,3.191c-2.901,5.103-9.651,19.447-9.651,42.539s6.75,37.427,9.651,42.53
				c1.57,2.756,4.454,4.309,7.424,4.309c1.425,0,2.884-0.358,4.215-1.118c4.088-2.33,5.521-7.543,3.191-11.639
				c-2.227-3.917-7.415-15.07-7.415-34.082c0-19.021,5.188-30.174,7.415-34.091C60.946,217.693,59.512,212.488,55.425,210.15z"/>
			<path d="M409.6,255.876c0-4.719,3.823-8.533,8.533-8.533h93.619c-0.521-9.062-1.86-17.655-3.891-25.6H366.933
				c-4.71,0-8.533-3.814-8.533-8.533s3.823-8.533,8.533-8.533h135.023c-9.25-20.813-24.081-34.133-41.156-34.133H51.2
				c-28.706,0-51.2,37.487-51.2,85.333s22.494,85.333,51.2,85.333h409.6c26.974,0,48.452-33.101,50.953-76.8h-93.619
				C413.423,264.41,409.6,260.595,409.6,255.876z M375.467,247.343c4.71,0,8.533,3.814,8.533,8.533c0,4.719-3.823,8.533-8.533,8.533
				h-51.2c-4.71,0-8.533-3.814-8.533-8.533c0-4.719,3.823-8.533,8.533-8.533H375.467z M196.267,204.676H332.8
				c4.71,0,8.533,3.814,8.533,8.533s-3.823,8.533-8.533,8.533H196.267c-4.71,0-8.533-3.814-8.533-8.533
				S191.556,204.676,196.267,204.676z M298.667,255.876c0,4.719-3.823,8.533-8.533,8.533h-25.6c-4.71,0-8.533-3.814-8.533-8.533
				c0-4.719,3.823-8.533,8.533-8.533h25.6C294.844,247.343,298.667,251.157,298.667,255.876z M221.867,255.876
				c0,4.719-3.823,8.533-8.533,8.533H128c-4.71,0-8.533-3.814-8.533-8.533c0-4.719,3.823-8.533,8.533-8.533h85.333
				C218.044,247.343,221.867,251.157,221.867,255.876z M162.133,204.676c4.71,0,8.533,3.814,8.533,8.533s-3.823,8.533-8.533,8.533
				H98.261c-1.562-6.127-3.567-11.81-5.905-17.067H162.133z M51.2,324.143c-16.145,0-34.133-28.032-34.133-68.267
				S35.055,187.61,51.2,187.61c16.145,0,34.133,28.032,34.133,68.267S67.345,324.143,51.2,324.143z M170.667,307.076h-78.31
				c2.338-5.257,4.343-10.94,5.905-17.067h72.405c4.71,0,8.533,3.814,8.533,8.533S175.377,307.076,170.667,307.076z
				 M324.267,307.076h-102.4c-4.71,0-8.533-3.814-8.533-8.533s3.823-8.533,8.533-8.533h102.4c4.71,0,8.533,3.814,8.533,8.533
				S328.977,307.076,324.267,307.076z M460.8,298.543c0,4.719-3.823,8.533-8.533,8.533H384c-4.71,0-8.533-3.814-8.533-8.533
				s3.823-8.533,8.533-8.533h68.267C456.977,290.01,460.8,293.824,460.8,298.543z"/>
		</g>
	</g>
</g>
<g>
</g>
<g>
</g>
<g>
</g>
<g>
</g>
<g>
</g>
<g>
</g>
<g>
</g>
<g>
</g>
<g>
</g>
<g>
</g>
<g>
</g>
<g>
</g>
<g>
</g>
<g>
</g>
<g>
</g>
</svg>
